<svg width="800" height="320" viewBox="0 0 800 320" fill="none" xmlns="http://www.w3.org/2000/svg">
<path d="M575.422 130.562C575.422 131.859 575.037 133.128 574.316 134.207C573.595 135.286 572.57 136.127 571.371 136.624C570.172 137.12 568.853 137.25 567.58 136.997C566.307 136.744 565.138 136.119 564.221 135.201C563.303 134.284 562.678 133.115 562.425 131.842C562.172 130.569 562.302 129.25 562.798 128.051C563.295 126.852 564.136 125.827 565.215 125.106C566.294 124.385 567.563 124 568.86 124C570.6 124.003 572.267 124.695 573.497 125.925C574.727 127.155 575.419 128.822 575.422 130.562Z" fill="white" fill-opacity="0.2"/>
<path d="M621.567 130.562C621.567 131.859 621.182 133.128 620.461 134.207C619.74 135.286 618.715 136.127 617.516 136.624C616.317 137.12 614.998 137.25 613.725 136.997C612.452 136.744 611.283 136.119 610.365 135.201C609.448 134.284 608.823 133.115 608.569 131.842C608.316 130.569 608.446 129.25 608.943 128.051C609.439 126.852 610.28 125.827 611.36 125.106C612.439 124.385 613.707 124 615.005 124C616.744 124.003 618.412 124.695 619.642 125.925C620.872 127.155 621.564 128.822 621.567 130.562Z" fill="white" fill-opacity="0.2"/>
<path d="M667.711 130.562C667.711 131.859 667.326 133.128 666.605 134.207C665.884 135.286 664.859 136.127 663.66 136.624C662.462 137.12 661.142 137.25 659.869 136.997C658.597 136.744 657.427 136.119 656.51 135.201C655.592 134.284 654.967 133.115 654.714 131.842C654.461 130.569 654.591 129.25 655.087 128.051C655.584 126.852 656.425 125.827 657.504 125.106C658.583 124.385 659.852 124 661.149 124C662.889 124.003 664.556 124.695 665.786 125.925C667.016 127.155 667.708 128.822 667.711 130.562Z" fill="white" fill-opacity="0.2"/>
<path d="M713.855 130.562C713.857 131.862 713.473 133.134 712.752 134.216C712.031 135.299 711.004 136.143 709.803 136.641C708.602 137.14 707.28 137.271 706.004 137.018C704.728 136.764 703.556 136.138 702.637 135.219C701.717 134.299 701.091 133.127 700.838 131.851C700.584 130.576 700.715 129.253 701.214 128.052C701.713 126.851 702.557 125.825 703.639 125.103C704.721 124.382 705.993 123.998 707.294 124C709.033 124.003 710.701 124.695 711.931 125.925C713.161 127.155 713.853 128.822 713.855 130.562Z" fill="white" fill-opacity="0.2"/>
<path d="M760 130.562C760.002 131.861 759.619 133.131 758.899 134.212C758.18 135.294 757.156 136.138 755.957 136.637C754.758 137.137 753.438 137.271 752.163 137.021C750.889 136.771 749.717 136.149 748.795 135.233C747.874 134.317 747.245 133.149 746.987 131.876C746.729 130.603 746.854 129.282 747.347 128.08C747.839 126.878 748.677 125.849 749.754 125.123C750.831 124.397 752.099 124.006 753.397 124C754.262 123.996 755.119 124.163 755.919 124.491C756.72 124.818 757.447 125.301 758.061 125.91C758.674 126.52 759.161 127.245 759.494 128.043C759.826 128.841 759.998 129.697 760 130.562Z" fill="white" fill-opacity="0.2"/>
<path d="M529.288 130.562C529.29 131.862 528.906 133.133 528.185 134.215C527.465 135.297 526.439 136.141 525.238 136.64C524.038 137.139 522.716 137.271 521.44 137.018C520.165 136.766 518.993 136.141 518.073 135.222C517.153 134.304 516.526 133.133 516.272 131.858C516.017 130.583 516.147 129.261 516.644 128.059C517.141 126.858 517.983 125.831 519.064 125.108C520.145 124.386 521.416 124 522.716 124C524.457 124 526.127 124.691 527.36 125.921C528.592 127.151 529.285 128.82 529.288 130.562Z" fill="white" fill-opacity="0.2"/>
<path d="M483.143 130.562C483.145 131.862 482.762 133.133 482.041 134.215C481.32 135.297 480.294 136.141 479.094 136.64C477.893 137.139 476.571 137.271 475.296 137.018C474.02 136.766 472.849 136.141 471.928 135.222C471.008 134.304 470.381 133.133 470.127 131.858C469.873 130.583 470.002 129.261 470.499 128.059C470.996 126.858 471.839 125.831 472.92 125.108C474.001 124.386 475.272 124 476.572 124C478.313 124 479.983 124.691 481.215 125.921C482.447 127.151 483.141 128.82 483.143 130.562Z" fill="white" fill-opacity="0.2"/>
<path d="M568.86 190.297C572.484 190.297 575.422 187.359 575.422 183.735C575.422 180.111 572.484 177.173 568.86 177.173C565.237 177.173 562.299 180.111 562.299 183.735C562.299 187.359 565.237 190.297 568.86 190.297Z" fill="white" fill-opacity="0.2"/>
<path d="M621.567 183.735C621.567 185.033 621.182 186.301 620.461 187.38C619.74 188.459 618.715 189.3 617.516 189.797C616.317 190.294 614.998 190.424 613.725 190.17C612.452 189.917 611.283 189.292 610.365 188.375C609.448 187.457 608.823 186.288 608.569 185.015C608.316 183.742 608.446 182.423 608.943 181.224C609.439 180.025 610.28 179 611.36 178.279C612.439 177.558 613.707 177.173 615.005 177.173C616.745 177.173 618.414 177.865 619.645 179.095C620.875 180.326 621.567 181.995 621.567 183.735Z" fill="white" fill-opacity="0.2"/>
<path d="M667.711 183.735C667.711 185.033 667.326 186.301 666.605 187.38C665.884 188.459 664.859 189.3 663.66 189.797C662.462 190.294 661.142 190.424 659.869 190.17C658.597 189.917 657.427 189.292 656.51 188.375C655.592 187.457 654.967 186.288 654.714 185.015C654.461 183.742 654.591 182.423 655.087 181.224C655.584 180.025 656.425 179 657.504 178.279C658.583 177.558 659.852 177.173 661.149 177.173C662.89 177.173 664.559 177.865 665.789 179.095C667.02 180.326 667.711 181.995 667.711 183.735Z" fill="white" fill-opacity="0.2"/>
<path d="M713.855 183.735C713.857 185.036 713.473 186.308 712.752 187.39C712.031 188.472 711.004 189.316 709.803 189.815C708.602 190.313 707.28 190.444 706.004 190.191C704.728 189.938 703.556 189.312 702.637 188.392C701.717 187.472 701.091 186.3 700.838 185.025C700.584 183.749 700.715 182.427 701.214 181.226C701.713 180.024 702.557 178.998 703.639 178.277C704.721 177.555 705.993 177.171 707.294 177.173C709.034 177.173 710.703 177.865 711.934 179.095C713.164 180.326 713.855 181.995 713.855 183.735Z" fill="white" fill-opacity="0.2"/>
<path d="M760 183.735C760.002 185.034 759.619 186.304 758.899 187.385C758.18 188.467 757.156 189.311 755.957 189.811C754.758 190.31 753.438 190.444 752.163 190.194C750.889 189.944 749.717 189.322 748.795 188.406C747.874 187.491 747.245 186.322 746.987 185.049C746.729 183.776 746.854 182.455 747.347 181.253C747.839 180.052 748.677 179.022 749.754 178.296C750.831 177.57 752.099 177.179 753.397 177.173C754.263 177.168 755.12 177.334 755.921 177.661C756.722 177.988 757.45 178.471 758.063 179.081C758.677 179.69 759.164 180.416 759.496 181.214C759.829 182.013 760 182.87 760 183.735Z" fill="white" fill-opacity="0.2"/>
<path d="M522.716 190.297C526.34 190.297 529.278 187.359 529.278 183.735C529.278 180.111 526.34 177.173 522.716 177.173C519.092 177.173 516.155 180.111 516.155 183.735C516.155 187.359 519.092 190.297 522.716 190.297Z" fill="white" fill-opacity="0.2"/>
<path d="M476.572 190.297C480.195 190.297 483.133 187.359 483.133 183.735C483.133 180.111 480.195 177.173 476.572 177.173C472.948 177.173 470.01 180.111 470.01 183.735C470.01 187.359 472.948 190.297 476.572 190.297Z" fill="white" fill-opacity="0.2"/>
<path d="M568.86 243.47C572.484 243.47 575.422 240.532 575.422 236.908C575.422 233.284 572.484 230.346 568.86 230.346C565.237 230.346 562.299 233.284 562.299 236.908C562.299 240.532 565.237 243.47 568.86 243.47Z" fill="white" fill-opacity="0.2"/>
<path d="M621.567 236.908C621.567 238.206 621.182 239.474 620.461 240.553C619.74 241.633 618.715 242.474 617.516 242.97C616.317 243.467 614.998 243.597 613.725 243.344C612.452 243.09 611.283 242.465 610.365 241.548C609.448 240.63 608.823 239.461 608.569 238.188C608.316 236.915 608.446 235.596 608.943 234.397C609.439 233.198 610.28 232.173 611.36 231.452C612.439 230.731 613.707 230.346 615.005 230.346C616.745 230.346 618.414 231.038 619.645 232.268C620.875 233.499 621.567 235.168 621.567 236.908Z" fill="white" fill-opacity="0.2"/>
<path d="M667.711 236.908C667.711 238.206 667.326 239.474 666.605 240.553C665.884 241.633 664.859 242.474 663.66 242.97C662.462 243.467 661.142 243.597 659.869 243.344C658.597 243.09 657.427 242.465 656.51 241.548C655.592 240.63 654.967 239.461 654.714 238.188C654.461 236.915 654.591 235.596 655.087 234.397C655.584 233.198 656.425 232.173 657.504 231.452C658.583 230.731 659.852 230.346 661.149 230.346C662.89 230.346 664.559 231.038 665.789 232.268C667.02 233.499 667.711 235.168 667.711 236.908Z" fill="white" fill-opacity="0.2"/>
<path d="M713.855 236.908C713.857 238.209 713.473 239.481 712.752 240.563C712.031 241.645 711.004 242.489 709.803 242.988C708.602 243.486 707.28 243.617 706.004 243.364C704.728 243.111 703.556 242.485 702.637 241.565C701.717 240.645 701.091 239.474 700.838 238.198C700.584 236.922 700.715 235.6 701.214 234.399C701.713 233.197 702.557 232.171 703.639 231.45C704.721 230.728 705.993 230.344 707.294 230.346C709.034 230.346 710.703 231.038 711.934 232.268C713.164 233.499 713.855 235.168 713.855 236.908Z" fill="white" fill-opacity="0.2"/>
<path d="M760 236.908C760.002 238.207 759.619 239.477 758.899 240.559C758.18 241.64 757.156 242.484 755.957 242.984C754.758 243.484 753.438 243.617 752.163 243.367C750.889 243.117 749.717 242.495 748.795 241.579C747.874 240.664 747.245 239.496 746.987 238.223C746.729 236.95 746.854 235.629 747.347 234.427C747.839 233.225 748.677 232.196 749.754 231.47C750.831 230.743 752.099 230.353 753.397 230.347C754.263 230.341 755.12 230.507 755.921 230.834C756.722 231.162 757.45 231.644 758.063 232.254C758.677 232.864 759.164 233.589 759.496 234.388C759.829 235.186 760 236.043 760 236.908Z" fill="white" fill-opacity="0.2"/>
<path d="M522.716 243.47C526.34 243.47 529.278 240.532 529.278 236.908C529.278 233.284 526.34 230.346 522.716 230.346C519.092 230.346 516.155 233.284 516.155 236.908C516.155 240.532 519.092 243.47 522.716 243.47Z" fill="white" fill-opacity="0.2"/>
<path d="M476.572 243.47C480.195 243.47 483.133 240.532 483.133 236.908C483.133 233.284 480.195 230.346 476.572 230.346C472.948 230.346 470.01 233.284 470.01 236.908C470.01 240.532 472.948 243.47 476.572 243.47Z" fill="white" fill-opacity="0.2"/>
<path d="M575.422 290.082C575.412 291.378 575.019 292.641 574.292 293.714C573.565 294.786 572.536 295.619 571.336 296.108C570.137 296.597 568.819 296.719 567.55 296.461C566.28 296.202 565.116 295.573 564.203 294.653C563.29 293.733 562.671 292.564 562.421 291.293C562.172 290.021 562.305 288.705 562.803 287.509C563.301 286.313 564.142 285.291 565.22 284.572C566.298 283.853 567.565 283.47 568.86 283.47C569.726 283.47 570.584 283.641 571.383 283.974C572.183 284.307 572.908 284.795 573.518 285.409C574.128 286.024 574.61 286.754 574.937 287.555C575.264 288.357 575.429 289.216 575.422 290.082Z" fill="white" fill-opacity="0.2"/>
<path d="M621.567 290.081C621.565 291.379 621.178 292.646 620.456 293.724C619.734 294.802 618.708 295.641 617.509 296.136C616.31 296.631 614.991 296.76 613.719 296.505C612.446 296.251 611.278 295.625 610.362 294.707C609.445 293.789 608.821 292.62 608.569 291.347C608.316 290.075 608.447 288.756 608.944 287.558C609.441 286.359 610.282 285.335 611.361 284.615C612.439 283.894 613.708 283.51 615.005 283.51C615.867 283.51 616.722 283.68 617.518 284.01C618.315 284.34 619.039 284.825 619.648 285.435C620.258 286.045 620.741 286.77 621.07 287.567C621.399 288.364 621.568 289.219 621.567 290.081Z" fill="white" fill-opacity="0.2"/>
<path d="M667.711 290.081C667.709 291.379 667.323 292.646 666.6 293.724C665.878 294.802 664.853 295.641 663.653 296.136C662.454 296.631 661.135 296.76 659.863 296.505C658.591 296.251 657.423 295.625 656.506 294.707C655.59 293.789 654.966 292.62 654.713 291.347C654.461 290.075 654.591 288.756 655.088 287.558C655.585 286.359 656.426 285.335 657.505 284.615C658.584 283.894 659.852 283.51 661.149 283.51C662.012 283.51 662.866 283.68 663.663 284.01C664.46 284.34 665.183 284.825 665.793 285.435C666.402 286.045 666.885 286.77 667.215 287.567C667.544 288.364 667.712 289.219 667.711 290.081Z" fill="white" fill-opacity="0.2"/>
<path d="M713.855 290.081C713.855 291.381 713.47 292.652 712.747 293.733C712.025 294.814 710.998 295.657 709.796 296.154C708.595 296.651 707.273 296.78 705.998 296.526C704.723 296.272 703.552 295.645 702.633 294.725C701.714 293.805 701.089 292.633 700.837 291.357C700.585 290.082 700.716 288.76 701.215 287.559C701.714 286.359 702.558 285.333 703.64 284.612C704.722 283.891 705.994 283.508 707.294 283.51C708.156 283.51 709.01 283.68 709.807 284.01C710.604 284.34 711.328 284.825 711.937 285.435C712.547 286.045 713.03 286.77 713.359 287.567C713.688 288.364 713.857 289.219 713.855 290.081Z" fill="white" fill-opacity="0.2"/>
<path d="M760 290.082C759.992 291.379 759.6 292.644 758.875 293.719C758.149 294.794 757.122 295.63 755.922 296.122C754.722 296.614 753.404 296.74 752.132 296.484C750.861 296.229 749.694 295.603 748.778 294.685C747.861 293.767 747.237 292.599 746.983 291.327C746.73 290.056 746.858 288.737 747.352 287.538C747.846 286.339 748.683 285.313 749.759 284.589C750.835 283.865 752.101 283.476 753.398 283.47C754.267 283.464 755.129 283.632 755.933 283.962C756.737 284.293 757.467 284.78 758.082 285.395C758.696 286.01 759.182 286.742 759.511 287.546C759.84 288.351 760.007 289.213 760 290.082Z" fill="white" fill-opacity="0.2"/>
<path d="M529.288 290.082C529.28 291.38 528.888 292.647 528.161 293.722C527.434 294.797 526.405 295.633 525.203 296.125C524.002 296.616 522.681 296.74 521.409 296.482C520.137 296.224 518.97 295.595 518.055 294.674C517.14 293.753 516.518 292.582 516.268 291.309C516.018 290.035 516.15 288.716 516.649 287.517C517.147 286.319 517.99 285.295 519.069 284.575C520.149 283.854 521.418 283.47 522.716 283.47C523.583 283.47 524.44 283.641 525.24 283.974C526.04 284.307 526.767 284.794 527.378 285.409C527.988 286.023 528.472 286.753 528.799 287.555C529.127 288.357 529.293 289.216 529.288 290.082Z" fill="white" fill-opacity="0.2"/>
<path d="M483.143 290.082C483.135 291.38 482.743 292.647 482.016 293.722C481.289 294.797 480.26 295.633 479.058 296.125C477.857 296.616 476.537 296.74 475.265 296.482C473.993 296.224 472.826 295.595 471.911 294.674C470.996 293.753 470.374 292.582 470.123 291.309C469.873 290.035 470.006 288.716 470.504 287.517C471.003 286.319 471.845 285.295 472.925 284.575C474.005 283.854 475.274 283.47 476.572 283.47C477.438 283.47 478.296 283.641 479.096 283.974C479.896 284.307 480.622 284.794 481.233 285.409C481.844 286.023 482.327 286.753 482.655 287.555C482.983 288.357 483.149 289.216 483.143 290.082Z" fill="white" fill-opacity="0.2"/>
<path d="M258.005 551.001C212.713 551.002 168.437 537.572 130.777 512.409C93.1172 487.246 63.7649 451.481 46.432 409.636C29.0991 367.791 24.5641 321.746 33.4006 277.324C42.237 232.901 64.0479 192.097 96.0752 160.071C117.291 138.741 142.527 121.83 170.323 110.317C198.118 98.8047 227.92 92.9191 258.005 93.0008V103.001C137.245 103.001 39.0052 201.241 39.0052 322.001C39.0052 442.761 137.245 541.001 258.005 541.001C378.765 541.001 477.005 442.761 477.005 322.001H487.005C487.005 382.735 462.878 440.982 419.933 483.928C376.987 526.874 318.74 551.001 258.005 551.001Z" fill="#171717" fill-opacity="0.2"/>
<path d="M333.28 435.85L129.4 232C130.68 229.487 132.013 227.013 133.4 224.58L340.7 431.81C338.27 433.22 335.79 434.57 333.28 435.85Z" fill="#171717" fill-opacity="0.1"/>
<path d="M311.77 444.77L120.48 253.48C121.42 250.63 122.42 247.82 123.48 245.04L320.18 441.74C317.44 442.83 314.62 443.84 311.77 444.77Z" fill="#171717" fill-opacity="0.1"/>
<path d="M352.24 424.39L140.86 213C142.44 210.78 144.08 208.6 145.78 206.46L358.78 419.46C356.653 421.153 354.473 422.797 352.24 424.39Z" fill="#171717" fill-opacity="0.1"/>
<path d="M287.16 450.58L114.67 278.09C115.163 274.817 115.753 271.587 116.44 268.4L296.85 448.81C293.66 449.5 290.43 450.1 287.16 450.58Z" fill="#171717" fill-opacity="0.1"/>
<path d="M264.63 452.25C262.503 452.25 260.383 452.203 258.27 452.11L113.14 307C113.06 304.89 113 302.78 113 300.65C113 298.92 113 297.2 113.1 295.49L269.78 452.15C268.07 452.21 266.35 452.25 264.63 452.25Z" fill="#171717" fill-opacity="0.1"/>
<path d="M368.93 410.67L154.59 196.32C156.45 194.32 158.36 192.44 160.32 190.59L374.67 404.93C372.81 406.903 370.897 408.817 368.93 410.67Z" fill="#171717" fill-opacity="0.1"/>
<path d="M383.47 394.78L170.47 181.78C172.61 180.08 174.79 178.44 177.01 176.86L388.39 388.24C386.797 390.467 385.157 392.647 383.47 394.78Z" fill="#171717" fill-opacity="0.1"/>
<path d="M416.25 300.63C416.25 302.35 416.25 304.07 416.15 305.78L259.47 149.1C261.18 149.04 262.9 149 264.63 149C266.76 149 268.87 149.06 270.98 149.14L416.11 294.27C416.203 296.383 416.25 298.503 416.25 300.63Z" fill="#171717" fill-opacity="0.1"/>
<path d="M395.86 224.64L340.61 169.39C363.514 182.694 382.556 201.736 395.86 224.64Z" fill="#171717" fill-opacity="0.1"/>
<path d="M413.72 272.92L292.33 151.53C297.387 152.473 302.394 153.671 307.33 155.12L410.13 257.87C411.579 262.823 412.777 267.846 413.72 272.92Z" fill="#171717" fill-opacity="0.1"/>
<path d="M412.81 332.85L232.4 152.44C235.587 151.773 238.817 151.183 242.09 150.67L414.58 323.16C414.1 326.43 413.5 329.66 412.81 332.85Z" fill="#171717" fill-opacity="0.1"/>
<path d="M395.81 376.7L188.55 169.44C190.99 168.033 193.463 166.7 195.97 165.44L399.85 369.28C398.57 371.76 397.223 374.233 395.81 376.7Z" fill="#171717" fill-opacity="0.1"/>
<path d="M405.74 356.21L209 159.51C211.78 158.42 214.59 157.42 217.44 156.51L408.77 347.77C407.84 350.62 406.83 353.44 405.74 356.21Z" fill="#171717" fill-opacity="0.1"/>
<path d="M408 116.399L403.601 112L396 119.601L388.399 112L384 116.399L391.601 124L384 131.601L388.399 136L396 128.399L403.601 136L408 131.601L400.399 124L408 116.399Z" fill="white" fill-opacity="0.2"/>
</svg>